<?xml version="1.0" encoding="utf-8"?>
<!-- Generator: Adobe Illustrator 28.2.0, SVG Export Plug-In . SVG Version: 6.00 Build 0)  -->
<svg version="1.1" id="Layer_1" xmlns="http://www.w3.org/2000/svg" xmlns:xlink="http://www.w3.org/1999/xlink" x="0px" y="0px"
	 viewBox="0 0 864 231.5" style="enable-background:new 0 0 864 231.5;" xml:space="preserve">
<style type="text/css">
	.st0{fill:#141E45;}
	.st1{fill:#F29373;}
	.st2{fill:#1F4491;}
	.st3{fill:#EC6534;}
	.st4{fill:#D6B567;}
	.st5{fill:#141E46;}
</style>
<path class="st0" d="M-164.8,130.6h-35.5V66L-228,97.7l-27.4-31.2v64.1h-35.5v-115h37.1l26.1,29.9l26.1-29.9h36.8L-164.8,130.6
	L-164.8,130.6z"/>
<path class="st1" d="M-115,111.5l-7.4,19.1h-37.3l46.5-115h44l46.5,115h-37.6l-7.4-19.1H-115z M-91.4,49.9L-102.2,78h21.7
	L-91.4,49.9z"/>
<path class="st2" d="M96.4,130.6h-114v-115h35.5v81.5h78.5V130.6z"/>
<path class="st3" d="M146.1,111.5l-7.4,19.1h-37.3l46.5-115h44l46.5,115h-37.6l-7.4-19.1H146.1z M169.8,49.9L159,78h21.6L169.8,49.9
	z"/>
<path class="st0" d="M357,130.6H243.5v-115H279v81.5h78V130.6z"/>
<path class="st4" d="M406.8,111.5l-7.4,19.1h-37.3l46.5-115h44l46.5,115h-37.6l-7.4-19.1H406.8z M430.4,49.9L419.6,78h21.7
	L430.4,49.9z"/>
<g>
	<path class="st5" d="M-270.9,194.9v17.8h-19.6v-63.5h50.6V167h-31v10h26v17.9H-270.9z"/>
	<path class="st5" d="M-210.9,183.4c0,7.4,3.7,11.5,10.2,11.5c6.6,0,10.4-4.1,10.4-11.5v-34.1h20.5v35.5c0,15.6-11.2,28.9-30.9,28.9
		c-19.5,0-30.7-12.1-30.7-28.9v-35.5h20.5V183.4z"/>
	<path class="st5" d="M-136.7,182v30.8h-20.5v-63.5h17.7l25.2,30.8v-30.8h20.5v63.5h-17.7L-136.7,182z"/>
	<path class="st5" d="M-80.3,149.2h30.7c18.8,0.1,32.8,11.2,32.8,31.8c0,20.4-14,31.6-32.8,31.6h-30.7V149.2z M-59.8,167v28h9.2
		c7.6,0,12.5-5.1,12.5-13.9c0-9-4.9-14.1-12.5-14.1H-59.8z"/>
</g>
<g>
	<path class="st0" d="M520.4,118.6l-5.3-5.3l-5.3,5.3c-1.5,1.5-2.2,3.4-2.2,5.3s0.7,3.8,2.2,5.3l0,0c1.5,1.4,3.4,2.2,5.3,2.2
		s3.8-0.7,5.2-2.2l0,0l5.3-5.3l0,0l0,0L520.4,118.6z"/>
	<polygon class="st0" points="525.7,123.8 525.7,120.7 525.7,113.3 525.7,113.3 525.7,105.9 525.7,102.8 520.4,108 515.2,113.3 
		520.4,118.6 	"/>
	<path class="st0" d="M525.7,123.8l5.3,5.3c1.5,1.5,3.4,2.2,5.3,2.2s3.8-0.7,5.3-2.2c2.9-2.9,2.9-7.6,0-10.5l-5.3-5.3l-5.3,5.3
		L525.7,123.8z"/>
	<path class="st0" d="M525.7,102.8l-5.3-5.3c-1.5-1.5-3.4-2.2-5.3-2.2c-1.7,0-3.4,0.6-4.7,1.7c-0.2,0.2-0.3,0.3-0.5,0.5
		s-0.3,0.3-0.5,0.5c-2.4,2.9-2.3,7.3,0.5,10l5.3,5.3l0,0l5.3-5.3L525.7,102.8z"/>
	<path class="st0" d="M536.2,95.4L536.2,95.4c-1.9,0-3.8,0.7-5.3,2.2l-5.3,5.3l5.2,5.3l0,0l5.3,5.3l0,0l0,0l5.3-5.3l0,0
		c1.5-1.5,2.2-3.4,2.2-5.3s-0.7-3.8-2.2-5.2l0,0C540,96.1,538.1,95.4,536.2,95.4z"/>
</g>
</svg>
